# xmcd
#
# Track frame offsets:
#	150
#	15565
#	30554
#	47869
#	59221
#	72073
#	90942
#	104164
#	122291
#	136868
#	150783
#	164385
#	176295
#	190779
#	201479
#	216481
#	231590
#	247689
#	258574
#	271700
#	285217
#	299086
#	314815
#
# Disc length: 4375 seconds
#
# Revision: 0
# Processed by: cddbd v1.5.2PL0 Copyright (c) Steve Scherf et al.
# Submitted via: EasyCDDAExtractor 15.2.5.1
#
DISCID=4e111517
DTITLE=Johnny Cash - Boom Chicka Boom/Mystery Of Life
DYEAR=1990
DGENRE=
TTITLE0=A Backstage Pass
TTITLE1=Cat's in the Cradle
TTITLE2=Farmer's Almanac
TTITLE3=Don't Go Near the Water
TTITLE4=Family Bible
TTITLE5=Harley
TTITLE6=I Love You, Love You
TTITLE7=Hidden Shame
TTITLE8=Monteagle Mountain
TTITLE9=That's One You Owe Me
TTITLE10=Veteran's Day
TTITLE11=I'M An Easy Rider
TTITLE12=The Mystery Of Life
TTITLE13=Hey Porter
TTITLE14=Beans For Breakfast
TTITLE15=Goin' By The Book
TTITLE16=The Hobo Song
TTITLE17=Angel And The Badman
TTITLE18=That Old Wheel
TTITLE19=Sweeter Than The Flowers
TTITLE20=As Long As I Live
TTITLE21=Call Me The breeze
TTITLE22=Don't Take Your Guns To Town
EXTD=
EXTT0=
EXTT1=
EXTT2=
EXTT3=
EXTT4=
EXTT5=
EXTT6=
EXTT7=
EXTT8=
EXTT9=
EXTT10=
EXTT11=
EXTT12=
EXTT13=
EXTT14=
EXTT15=
EXTT16=
EXTT17=
EXTT18=
EXTT19=
EXTT20=
EXTT21=
EXTT22=
PLAYORDER=
